<?xml version="1.0" standalone="no"?>
<!DOCTYPE svg PUBLIC "-//W3C//DTD SVG 20010904//EN"
 "http://www.w3.org/TR/2001/REC-SVG-20010904/DTD/svg10.dtd">
<svg version="1.0" xmlns="http://www.w3.org/2000/svg"
 width="200.000000pt" height="200.000000pt" viewBox="0 0 200.000000 200.000000"
 preserveAspectRatio="xMidYMid meet">

<g transform="translate(0.000000,200.000000) scale(0.100000,-0.100000)"
fill="#000000" stroke="none">
<path d="M210 1978 c-76 -29 -160 -114 -188 -191 -22 -57 -22 -64 -22 -782 0
-717 0 -725 22 -782 28 -77 100 -152 177 -187 l59 -26 749 2 748 3 48 23 c62
31 127 96 157 157 l25 50 0 760 0 760 -27 50 c-36 70 -112 137 -181 164 -57
21 -65 21 -785 20 -715 0 -728 0 -782 -21z m1581 -21 c74 -36 140 -108 168
-181 21 -58 21 -60 19 -790 l-3 -731 -27 -52 c-35 -66 -85 -116 -151 -151
l-52 -27 -731 -3 c-730 -2 -732 -2 -790 19 -73 28 -145 94 -181 168 l-28 56 0
740 c0 735 0 740 21 786 26 55 82 120 131 150 78 48 72 48 843 46 l725 -2 56
-28z"/>
<path d="M389 1611 l-29 -29 0 -217 0 -217 29 -29 29 -29 218 0 c204 0 219 -1
239 -20 l21 -20 29 30 29 30 -22 23 c-21 22 -22 31 -22 236 l0 213 -29 29 -29
29 -217 0 -217 0 -29 -29z m439 -216 l3 -159 -31 29 -30 29 -30 -29 -30 -29
32 -33 32 -34 -164 3 -165 3 -3 193 -2 192 192 -2 193 -3 3 -160z"/>
<path d="M1080 1405 c0 -256 4 -280 55 -303 17 -8 93 -12 230 -12 l205 0 32
29 33 29 3 246 3 246 -45 0 -46 0 -2 -232 -3 -233 -190 0 -190 0 -3 233 -2
232 -40 0 -40 0 0 -235z"/>
<path d="M414 910 c-51 -20 -54 -36 -54 -303 l0 -248 38 3 37 3 3 98 3 97 194
0 195 0 0 -100 0 -100 40 0 40 0 0 240 c0 164 -4 247 -12 265 -22 50 -49 55
-265 54 -109 0 -208 -4 -219 -9z m414 -172 l3 -98 -196 0 -195 0 0 93 c0 52 3
97 7 101 4 3 90 5 192 4 l186 -3 3 -97z"/>
<path d="M1082 643 l3 -278 221 -3 c341 -4 334 -10 334 278 0 156 -3 190 -18
220 -28 57 -42 60 -305 60 l-237 0 2 -277z m466 -1 l2 -192 -192 2 -193 3 -3
179 c-2 125 1 183 9 192 10 12 47 14 193 12 l181 -3 3 -193z"/>
</g>
</svg>
